<?xml version="1.0" standalone="no"?>
<!DOCTYPE svg PUBLIC "-//W3C//DTD SVG 20010904//EN"
 "http://www.w3.org/TR/2001/REC-SVG-20010904/DTD/svg10.dtd">
<svg version="1.0" xmlns="http://www.w3.org/2000/svg"
 width="660.000000pt" height="660.000000pt" viewBox="0 0 660.000000 660.000000"
 preserveAspectRatio="xMidYMid meet">
<metadata>
Created by potrace 1.14, written by Peter Selinger 2001-2017
</metadata>
<g transform="translate(0.000000,660.000000) scale(0.100000,-0.100000)"
fill="#000000" stroke="none">
<path d="M3110 6594 c-166 -14 -278 -27 -379 -45 -787 -136 -1497 -555 -2002
-1184 -387 -481 -622 -1036 -706 -1670 -24 -181 -24 -609 0 -790 98 -736 400
-1371 900 -1891 1294 -1346 3441 -1351 4744 -11 438 451 738 1015 862 1623 53
261 65 382 65 674 0 194 -5 300 -17 395 -85 639 -316 1183 -716 1685 -102 128
-361 386 -496 493 -498 397 -1071 634 -1710 707 -95 11 -469 21 -545 14z
m2410 -1577 c30 -16 51 -37 67 -67 23 -43 23 -47 23 -405 0 -358 0 -362 -23
-405 -16 -30 -37 -51 -67 -67 l-43 -23 -2177 0 -2177 0 -43 23 c-30 16 -51 37
-67 67 -23 43 -23 47 -23 405 0 358 0 362 23 405 16 30 37 51 67 67 l43 23
2177 0 2177 0 43 -23z m0 -1250 c30 -16 51 -37 67 -67 23 -43 23 -47 23 -405
0 -358 0 -362 -23 -405 -16 -30 -37 -51 -67 -67 l-43 -23 -2177 0 -2177 0 -43
23 c-30 16 -51 37 -67 67 -23 43 -23 47 -23 405 0 358 0 362 23 405 16 30 37
51 67 67 l43 23 2177 0 2177 0 43 -23z m0 -1250 c30 -16 51 -37 67 -67 23 -43
23 -47 23 -405 0 -358 0 -362 -23 -406 -16 -31 -36 -51 -67 -66 l-44 -23
-2177 0 -2176 0 -43 23 c-30 16 -51 37 -67 67 -23 43 -23 47 -23 405 0 358 0
362 23 405 16 30 37 51 67 67 l43 23 2177 0 2177 0 43 -23z"/>
</g>
</svg>
